<svg width="119" height="119" viewBox="0 0 119 119" fill="none" xmlns="http://www.w3.org/2000/svg">
<g clip-path="url(#clip0_3_43)">
<path d="M59.03 114.4C89.61 114.4 114.4 89.6099 114.4 59.0299C114.4 28.4499 89.61 3.65991 59.03 3.65991C28.45 3.65991 3.66003 28.4499 3.66003 59.0299C3.66003 89.6099 28.45 114.4 59.03 114.4Z" stroke="#97D100" stroke-miterlimit="10"/>
<path d="M58.53 117.56C90.8552 117.56 117.06 91.3552 117.06 59.03C117.06 26.7048 90.8552 0.5 58.53 0.5C26.2048 0.5 0 26.7048 0 59.03C0 91.3552 26.2048 117.56 58.53 117.56Z" stroke="#97D100" stroke-miterlimit="10"/>
<path d="M77 37.4399H40.8C38.6461 37.4399 36.9 39.186 36.9 41.3399V77.5399C36.9 79.6939 38.6461 81.4399 40.8 81.4399H77C79.1539 81.4399 80.9 79.6939 80.9 77.5399V41.3399C80.9 39.186 79.1539 37.4399 77 37.4399Z" stroke="#97D100" stroke-miterlimit="10"/>
<path d="M61.68 37.4399H57.11V81.4399H61.68V37.4399Z" stroke="#97D100" stroke-miterlimit="10"/>
</g>
<defs>
<clipPath id="clip0_3_43">
<rect width="118.06" height="118.06" fill="white"/>
</clipPath>
</defs>
</svg>
