<svg width="119" height="119" viewBox="0 0 119 119" fill="none" xmlns="http://www.w3.org/2000/svg">
<g clip-path="url(#clip0_3_50)">
<path d="M59.03 114.4C89.61 114.4 114.4 89.6099 114.4 59.0299C114.4 28.4499 89.61 3.65991 59.03 3.65991C28.45 3.65991 3.66003 28.4499 3.66003 59.0299C3.66003 89.6099 28.45 114.4 59.03 114.4Z" stroke="#97D100" stroke-miterlimit="10"/>
<path d="M59.03 117.56C91.3552 117.56 117.56 91.3552 117.56 59.03C117.56 26.7048 91.3552 0.5 59.03 0.5C26.7048 0.5 0.5 26.7048 0.5 59.03C0.5 91.3552 26.7048 117.56 59.03 117.56Z" stroke="#97D100" stroke-miterlimit="10"/>
<path d="M83.73 71.63V51.38C83.73 49.2593 82.0108 47.54 79.89 47.54H37.91C35.7892 47.54 34.07 49.2593 34.07 51.38V71.63C34.07 73.7508 35.7892 75.47 37.91 75.47H79.89C82.0108 75.47 83.73 73.7508 83.73 71.63Z" stroke="#97D100" stroke-miterlimit="10"/>
<path d="M58.9 67.26C62.0812 67.26 64.66 64.6811 64.66 61.5C64.66 58.3188 62.0812 55.74 58.9 55.74C55.7189 55.74 53.14 58.3188 53.14 61.5C53.14 64.6811 55.7189 67.26 58.9 67.26Z" stroke="#97D100" stroke-miterlimit="10"/>
</g>
<defs>
<clipPath id="clip0_3_50">
<rect width="118.06" height="118.06" fill="white"/>
</clipPath>
</defs>
</svg>
