<?xml version="1.0" encoding="UTF-8" standalone="no"?><!DOCTYPE svg PUBLIC "-//W3C//DTD SVG 1.1//EN" "http://www.w3.org/Graphics/SVG/1.1/DTD/svg11.dtd"><svg width="100%" height="100%" viewBox="0 0 137 42" version="1.1" xmlns="http://www.w3.org/2000/svg" xmlns:xlink="http://www.w3.org/1999/xlink" xml:space="preserve" xmlns:serif="http://www.serif.com/" style="fill-rule:evenodd;clip-rule:evenodd;stroke-linejoin:round;stroke-miterlimit:2;"><g><path d="M14.351,23.852c-0.356,-0 -0.69,-0.093 -1.004,-0.278c-0.27,-0.185 -0.459,-0.444 -0.565,-0.779c-0.107,-0.334 -0.16,-0.708 -0.16,-1.121c-0,-0.626 0.085,-1.28 0.256,-1.963c0.171,-0.683 0.341,-1.246 0.512,-1.687c0.185,-0.526 0.427,-1.177 0.726,-1.953c0.299,-0.776 0.615,-1.601 0.95,-2.476c0.334,-0.875 0.654,-1.729 0.96,-2.562c0.306,-0.832 0.573,-1.562 0.801,-2.188c0.171,-0.512 0.356,-1.113 0.555,-1.804c0.199,-0.69 0.341,-1.305 0.427,-1.846c-0.256,0.726 -0.591,1.501 -1.003,2.327c-0.413,0.825 -0.876,1.651 -1.388,2.476c-0.512,0.84 -1.049,1.654 -1.612,2.444c-0.562,0.79 -1.12,1.512 -1.675,2.167c-0.385,0.455 -0.833,0.935 -1.345,1.441c-0.512,0.505 -1.057,0.971 -1.633,1.398c-0.577,0.427 -1.142,0.761 -1.697,1.003c-0.228,0.1 -0.448,0.174 -0.662,0.224c-0.213,0.05 -0.406,0.075 -0.576,0.075c-0.427,-0 -0.751,-0.132 -0.972,-0.395c-0.22,-0.263 -0.33,-0.608 -0.33,-1.035c-0,-0.427 0.121,-0.918 0.362,-1.473c0.129,-0.256 0.335,-0.648 0.619,-1.174c0.285,-0.527 0.612,-1.117 0.982,-1.772l2.242,-4.098c0.612,-1.111 1.163,-2.146 1.654,-3.106c0.491,-0.961 0.786,-1.74 0.886,-2.338c-0.171,0.285 -0.37,0.63 -0.598,1.035c-0.227,0.406 -0.462,0.815 -0.704,1.228c-0.242,0.413 -0.455,0.768 -0.64,1.067c-0.342,0.555 -0.691,1.085 -1.046,1.591c-0.356,0.505 -0.726,0.957 -1.11,1.355c-0.413,0.441 -0.89,0.918 -1.431,1.43c-0.54,0.513 -1.12,0.947 -1.739,1.302c-0.619,0.356 -1.256,0.534 -1.911,0.534c-0.598,0.029 -1.025,-0.124 -1.281,-0.459c-0.256,-0.334 -0.384,-0.687 -0.384,-1.057l0,-0.17c0,-0.185 0.036,-0.292 0.107,-0.321l0.064,0c0.057,0 0.085,0.057 0.085,0.171c0,0.157 0.025,0.331 0.075,0.523c0.05,0.192 0.188,0.288 0.416,0.288c0.185,0 0.505,-0.06 0.961,-0.181c0.455,-0.121 0.96,-0.338 1.515,-0.651c0.683,-0.384 1.487,-0.982 2.413,-1.793c0.925,-0.811 1.949,-1.95 3.073,-3.416c0.271,-0.37 0.516,-0.765 0.737,-1.184c0.22,-0.42 0.43,-0.801 0.63,-1.142c0.199,-0.342 0.398,-0.577 0.597,-0.705c0.242,-0.156 0.406,-0.178 0.491,-0.064c0.185,0.1 0.313,0.26 0.384,0.48c0.072,0.221 0.107,0.474 0.107,0.758c0,0.427 -0.074,0.918 -0.224,1.473c-0.149,0.555 -0.349,1.124 -0.598,1.708c-0.249,0.583 -0.523,1.131 -0.821,1.644c-0.271,0.512 -0.577,1.07 -0.918,1.675c-0.342,0.605 -0.68,1.199 -1.014,1.783c-0.335,0.583 -0.634,1.11 -0.897,1.579c-0.263,0.47 -0.452,0.826 -0.566,1.068c-0.142,0.284 -0.291,0.604 -0.448,0.96c-0.156,0.356 -0.288,0.694 -0.395,1.014c-0.106,0.32 -0.16,0.587 -0.16,0.801c0,0.313 0.135,0.469 0.406,0.469c0.128,0 0.327,-0.057 0.597,-0.17c0.37,-0.171 0.769,-0.431 1.196,-0.78c0.427,-0.348 0.854,-0.74 1.281,-1.174c0.427,-0.434 0.825,-0.868 1.195,-1.302c0.37,-0.434 0.676,-0.807 0.918,-1.121c0.583,-0.725 1.17,-1.497 1.761,-2.316c0.591,-0.818 1.149,-1.64 1.676,-2.465c0.512,-0.826 0.971,-1.64 1.377,-2.444c0.405,-0.804 0.722,-1.555 0.95,-2.252c0.156,-0.057 0.323,-0.107 0.501,-0.15c0.178,-0.043 0.352,-0.064 0.523,-0.064c0.242,0 0.434,0.05 0.577,0.15c0.327,0.227 0.49,0.562 0.49,1.003c0,0.228 -0.085,0.612 -0.256,1.153c-0.156,0.455 -0.348,0.964 -0.576,1.526c-0.228,0.562 -0.477,1.156 -0.747,1.782l-0.811,1.879c-0.157,0.327 -0.321,0.686 -0.491,1.078c-0.171,0.391 -0.331,0.761 -0.481,1.11c-0.149,0.348 -0.266,0.637 -0.352,0.864c-0.128,0.342 -0.288,0.751 -0.48,1.228c-0.192,0.477 -0.384,0.975 -0.576,1.494c-0.193,0.519 -0.367,1.01 -0.523,1.473c-0.157,0.462 -0.278,0.85 -0.363,1.163c-0.043,0.2 -0.111,0.47 -0.203,0.811c-0.093,0.342 -0.178,0.701 -0.256,1.078c-0.079,0.378 -0.118,0.708 -0.118,0.993c0,0.441 0.135,0.662 0.406,0.662c0.313,-0 0.622,-0.132 0.928,-0.395c0.306,-0.263 0.616,-0.569 0.929,-0.918c0.313,-0.349 0.633,-0.637 0.961,-0.864c0.057,-0.057 0.096,-0.075 0.117,-0.054c0.021,0.021 0.004,0.061 -0.053,0.118c-0.086,0.085 -0.192,0.234 -0.321,0.448c-0.128,0.213 -0.249,0.43 -0.362,0.651c-0.114,0.22 -0.2,0.388 -0.257,0.502c-0.142,0.313 -0.366,0.558 -0.672,0.736c-0.306,0.178 -0.63,0.267 -0.971,0.267Z" style="fill:#dbdcc9;fill-rule:nonzero;"/><path d="M19.047,21.674c-0.27,0 -0.505,-0.113 -0.704,-0.341c-0.2,-0.228 -0.299,-0.584 -0.299,-1.067c-0,-0.271 0.028,-0.548 0.085,-0.833c0.242,-1.338 0.619,-2.747 1.131,-4.227c0.513,-1.48 1.153,-2.945 1.922,-4.397c-0.897,0.299 -1.637,0.448 -2.22,0.448c-0.271,0 -0.47,-0.025 -0.598,-0.074c-0.128,-0.05 -0.192,-0.104 -0.192,-0.16c-0,-0.086 0.135,-0.121 0.405,-0.107c0.057,0.014 0.111,0.021 0.16,0.021l0.161,0c0.341,0 0.725,-0.053 1.152,-0.16c0.427,-0.107 0.883,-0.253 1.366,-0.438c0.769,-1.408 1.619,-2.743 2.551,-4.002c0.932,-1.259 1.932,-2.38 3,-3.362c0.37,-0.327 0.75,-0.587 1.142,-0.779c0.391,-0.192 0.75,-0.288 1.078,-0.288c0.284,-0 0.526,0.078 0.725,0.234c0.2,0.157 0.335,0.42 0.406,0.79c0.014,0.057 0.025,0.121 0.032,0.192c0.007,0.071 0.011,0.143 0.011,0.214c-0,0.27 -0.057,0.562 -0.171,0.875c-0.356,0.897 -1.075,1.8 -2.156,2.711c-0.527,0.455 -1.089,0.882 -1.687,1.281c-0.597,0.398 -1.223,0.775 -1.878,1.131c-0.655,0.356 -1.288,0.662 -1.9,0.918c-0.469,0.811 -0.904,1.637 -1.302,2.476c-0.398,0.84 -0.74,1.665 -1.025,2.476c-0.298,0.826 -0.533,1.619 -0.704,2.381c-0.171,0.761 -0.263,1.476 -0.278,2.145c0,0.626 0.157,0.939 0.47,0.939c0.185,0 0.42,-0.071 0.704,-0.213c0.442,-0.256 0.819,-0.52 1.132,-0.79c0.313,-0.27 0.633,-0.591 0.96,-0.961c0.157,-0.185 0.381,-0.459 0.673,-0.822c0.292,-0.362 0.608,-0.754 0.95,-1.174c0.341,-0.419 0.669,-0.807 0.982,-1.163c0.284,-0.342 0.569,-0.669 0.854,-0.982c0.042,-0.043 0.078,-0.064 0.106,-0.064c0.086,0 0.128,0.057 0.128,0.171c0,0.071 -0.028,0.142 -0.085,0.213c-0.157,0.2 -0.324,0.406 -0.502,0.619c-0.178,0.214 -0.345,0.413 -0.501,0.598c-0.086,0.085 -0.242,0.267 -0.47,0.544c-0.228,0.278 -0.498,0.605 -0.811,0.982c-0.313,0.377 -0.633,0.762 -0.961,1.153c-0.327,0.391 -0.629,0.751 -0.907,1.078c-0.277,0.327 -0.502,0.576 -0.672,0.747c-0.313,0.299 -0.651,0.552 -1.014,0.758c-0.363,0.206 -0.779,0.309 -1.249,0.309Zm3.864,-11.996c0.697,-0.342 1.409,-0.751 2.134,-1.228c0.726,-0.476 1.416,-0.989 2.071,-1.537c0.655,-0.548 1.217,-1.106 1.686,-1.675c0.47,-0.57 0.797,-1.125 0.982,-1.665c0.057,-0.171 0.086,-0.342 0.086,-0.513c-0,-0.441 -0.178,-0.661 -0.534,-0.661c-0.228,-0 -0.462,0.099 -0.704,0.298c-0.954,0.755 -1.929,1.744 -2.925,2.968c-0.996,1.223 -1.928,2.561 -2.796,4.013Z" style="fill:#dbdcc9;fill-rule:nonzero;"/><path d="M29.848,21.034c-0.256,0 -0.473,-0.085 -0.651,-0.256c-0.178,-0.171 -0.267,-0.434 -0.267,-0.79c0,-0.526 0.185,-1.263 0.555,-2.209c0.37,-0.947 0.812,-2.01 1.324,-3.192c-0.285,0.47 -0.63,0.972 -1.035,1.505c-0.406,0.534 -0.844,0.986 -1.313,1.356c-0.47,0.37 -0.954,0.555 -1.452,0.555c-0.441,-0 -0.754,-0.11 -0.939,-0.331c-0.185,-0.221 -0.278,-0.502 -0.278,-0.843c0,-0.214 0.047,-0.484 0.139,-0.811c0.093,-0.328 0.203,-0.648 0.331,-0.961c0.128,-0.313 0.249,-0.555 0.363,-0.726c0.356,-0.583 0.8,-1.152 1.334,-1.707c0.534,-0.555 1.096,-1.014 1.687,-1.377c0.59,-0.363 1.163,-0.545 1.718,-0.545c0.356,0 0.719,0.086 1.089,0.257c0.327,-0.684 0.658,-1.331 0.992,-1.943c0.335,-0.612 0.644,-1.146 0.929,-1.601c0.469,-0.797 0.9,-1.409 1.291,-1.836c0.392,-0.427 0.776,-0.733 1.153,-0.918c0.377,-0.185 0.772,-0.306 1.185,-0.363c-0.954,1.21 -1.804,2.402 -2.551,3.576c-0.747,1.174 -1.47,2.437 -2.167,3.789c0.029,0.085 0.043,0.149 0.043,0.192c-0,0.1 -0.032,0.178 -0.096,0.235c-0.064,0.057 -0.132,0.085 -0.203,0.085c-0.157,0.285 -0.349,0.669 -0.576,1.153c-0.228,0.484 -0.47,1.014 -0.726,1.59c-0.256,0.577 -0.505,1.164 -0.747,1.761c-0.242,0.598 -0.441,1.16 -0.598,1.687c-0.213,0.654 -0.32,1.117 -0.32,1.387c-0,0.143 0.042,0.214 0.128,0.214c0.185,-0 0.512,-0.256 0.982,-0.769l1.003,-1.067l0.683,-0.747l1.58,-1.836c0.142,-0.157 0.284,-0.32 0.427,-0.491c0.142,-0.171 0.277,-0.334 0.405,-0.491c0.043,-0.043 0.086,-0.064 0.128,-0.064c0.086,0 0.129,0.05 0.129,0.149c-0,0.057 -0.036,0.136 -0.107,0.235c-0.143,0.2 -0.303,0.406 -0.481,0.619c-0.177,0.214 -0.345,0.413 -0.501,0.598c-0.043,0.043 -0.16,0.185 -0.352,0.427c-0.192,0.242 -0.427,0.537 -0.705,0.886c-0.277,0.348 -0.558,0.708 -0.843,1.078c-0.285,0.37 -0.548,0.715 -0.79,1.035c-0.242,0.32 -0.427,0.566 -0.555,0.737c-0.185,0.242 -0.398,0.43 -0.64,0.565c-0.242,0.135 -0.477,0.203 -0.705,0.203Zm-2.689,-3.543c0.242,-0 0.597,-0.185 1.067,-0.555c0.299,-0.228 0.637,-0.541 1.014,-0.94c0.377,-0.398 0.736,-0.793 1.078,-1.184c0.341,-0.392 0.591,-0.694 0.747,-0.908c0.171,-0.412 0.359,-0.839 0.566,-1.28c0.206,-0.442 0.423,-0.89 0.651,-1.345c-0.114,-0.057 -0.242,-0.086 -0.384,-0.086c-0.385,0 -0.815,0.171 -1.292,0.513c-0.477,0.341 -0.907,0.718 -1.291,1.131c-0.498,0.512 -0.943,1.064 -1.334,1.654c-0.392,0.591 -0.687,1.128 -0.886,1.612c-0.171,0.398 -0.257,0.726 -0.257,0.982c0,0.27 0.107,0.406 0.321,0.406Z" style="fill:#dbdcc9;fill-rule:nonzero;"/><path d="M39.967,8.589c-0.37,0 -0.555,-0.178 -0.555,-0.534c-0,-0.213 0.078,-0.395 0.234,-0.544c0.157,-0.149 0.328,-0.224 0.513,-0.224c0.185,-0 0.331,0.064 0.437,0.192c0.107,0.128 0.146,0.285 0.118,0.47c-0.043,0.185 -0.132,0.338 -0.267,0.459c-0.135,0.121 -0.295,0.181 -0.48,0.181Zm-3.459,9.328c-0.74,0 -1.11,-0.462 -1.11,-1.387c0,-0.199 0.022,-0.427 0.064,-0.683c0.057,-0.299 0.168,-0.658 0.331,-1.078c0.164,-0.42 0.349,-0.84 0.555,-1.26c0.207,-0.419 0.395,-0.779 0.566,-1.078c0.142,-0.227 0.306,-0.498 0.491,-0.811c0.185,-0.313 0.363,-0.605 0.534,-0.875c0.17,-0.27 0.277,-0.448 0.32,-0.534c0.085,-0.185 0.256,-0.33 0.512,-0.437c0.256,-0.107 0.484,-0.16 0.683,-0.16c0.228,-0 0.342,0.064 0.342,0.192c-0,0.085 -0.029,0.163 -0.086,0.235c-0.27,0.441 -0.587,0.953 -0.949,1.537c-0.363,0.583 -0.716,1.181 -1.057,1.793c-0.342,0.612 -0.626,1.195 -0.854,1.75c-0.228,0.555 -0.342,1.032 -0.342,1.43c0,0.214 0.04,0.385 0.118,0.513c0.078,0.128 0.224,0.192 0.437,0.192c0.228,-0 0.488,-0.111 0.78,-0.331c0.291,-0.221 0.576,-0.47 0.853,-0.747c0.278,-0.278 0.488,-0.495 0.63,-0.651l0.427,-0.449c0.071,-0.071 0.135,-0.145 0.192,-0.224c0.057,-0.078 0.114,-0.153 0.171,-0.224c0.043,-0.043 0.078,-0.064 0.107,-0.064c0.085,0 0.128,0.064 0.128,0.192c-0,0.071 -0.029,0.135 -0.086,0.192c-0.156,0.2 -0.313,0.392 -0.469,0.577c-0.157,0.185 -0.32,0.37 -0.491,0.555c-0.356,0.427 -0.769,0.839 -1.238,1.238c-0.47,0.398 -0.989,0.597 -1.559,0.597Z" style="fill:#dbdcc9;fill-rule:nonzero;"/><path d="M37.213,22.55c-0.299,-0 -0.591,-0.036 -0.875,-0.107c-0.285,-0.071 -0.491,-0.178 -0.619,-0.32c-0.143,-0.157 -0.214,-0.356 -0.214,-0.598c0,-0.527 0.285,-1.017 0.854,-1.473c0.512,-0.384 1.06,-0.715 1.644,-0.992c0.583,-0.278 1.167,-0.531 1.75,-0.758c0.313,-0.128 0.662,-0.267 1.046,-0.417c0.384,-0.149 0.751,-0.298 1.099,-0.448c0.349,-0.149 0.637,-0.288 0.865,-0.416c0.171,-0.441 0.299,-0.986 0.384,-1.633c0.086,-0.648 0.15,-1.302 0.192,-1.964c0.043,-0.662 0.079,-1.227 0.107,-1.697c-0.683,0.811 -1.316,1.573 -1.9,2.284c-0.583,0.726 -1.138,1.402 -1.665,2.028c-0.071,0.071 -0.121,0.107 -0.149,0.107c-0.057,-0 -0.086,-0.057 -0.086,-0.171c0,-0.142 0.043,-0.256 0.128,-0.342c0.114,-0.142 0.299,-0.37 0.555,-0.683c0.257,-0.313 0.541,-0.661 0.854,-1.046c0.313,-0.384 0.619,-0.757 0.918,-1.12c0.299,-0.363 0.559,-0.68 0.779,-0.95c0.221,-0.271 0.36,-0.441 0.417,-0.513c-0,-0.583 0.195,-1.021 0.587,-1.312c0.391,-0.292 0.793,-0.438 1.206,-0.438c0.199,-0 0.391,0.036 0.576,0.107c0.1,0.042 0.15,0.092 0.15,0.149c-0,0.043 -0.072,0.086 -0.214,0.128c-0.341,0.1 -0.583,0.288 -0.726,0.566c-0.142,0.277 -0.231,0.612 -0.267,1.003c-0.035,0.392 -0.053,0.801 -0.053,1.228c0,0.54 -0.021,1.124 -0.064,1.75c-0.043,0.626 -0.114,1.181 -0.213,1.665c1.024,-0.569 2.024,-1.163 2.999,-1.782c0.975,-0.619 1.889,-1.206 2.743,-1.761c0.854,-0.541 1.626,-1.029 2.316,-1.463c0.69,-0.434 1.263,-0.758 1.718,-0.971c0.698,-0.327 1.359,-0.583 1.986,-0.768c0.626,-0.185 1.287,-0.278 1.985,-0.278c0.683,0 1.394,0.093 2.134,0.278c0.442,0.113 0.769,0.359 0.982,0.736c0.214,0.377 0.321,0.751 0.321,1.121c-0,0.299 -0.072,0.569 -0.214,0.811c-0.356,0.541 -0.747,0.918 -1.174,1.131c-0.427,0.214 -0.882,0.363 -1.366,0.449c-0.071,0.028 -0.11,0.024 -0.118,-0.011c-0.007,-0.036 0.018,-0.068 0.075,-0.096c0.157,-0.086 0.36,-0.231 0.609,-0.438c0.249,-0.206 0.494,-0.445 0.736,-0.715c0.242,-0.27 0.427,-0.534 0.555,-0.79c0.142,-0.313 0.213,-0.576 0.213,-0.79c0,-0.227 -0.071,-0.43 -0.213,-0.608c-0.142,-0.178 -0.377,-0.309 -0.704,-0.395c-0.385,-0.099 -0.79,-0.149 -1.217,-0.149c-0.697,-0 -1.388,0.121 -2.071,0.363c-0.683,0.242 -1.33,0.526 -1.942,0.853c-0.342,0.185 -0.776,0.431 -1.302,0.737c-0.527,0.306 -1.071,0.623 -1.633,0.95c-0.563,0.327 -1.078,0.626 -1.548,0.896c-0.882,0.513 -1.822,1.046 -2.818,1.601c-0.996,0.555 -2.042,1.11 -3.138,1.665c-0.37,0.869 -0.807,1.641 -1.313,2.317c-0.505,0.675 -1.042,1.248 -1.611,1.718c-0.584,0.484 -1.178,0.868 -1.783,1.153c-0.605,0.284 -1.192,0.476 -1.761,0.576c-0.071,0.014 -0.153,0.025 -0.245,0.032c-0.093,0.007 -0.182,0.011 -0.267,0.011Zm-0.491,-0.47c0.256,0 0.519,-0.057 0.79,-0.171c1.565,-0.583 2.924,-1.586 4.077,-3.01c0.071,-0.085 0.181,-0.227 0.331,-0.427c0.149,-0.199 0.295,-0.391 0.437,-0.576c0.143,-0.185 0.235,-0.313 0.278,-0.384c-0.228,0.128 -0.512,0.267 -0.854,0.416c-0.341,0.15 -0.69,0.295 -1.046,0.438c-0.356,0.142 -0.669,0.277 -0.939,0.405c-0.512,0.228 -1.025,0.474 -1.537,0.737c-0.512,0.263 -0.989,0.565 -1.43,0.907c-0.257,0.185 -0.456,0.388 -0.598,0.608c-0.142,0.221 -0.214,0.417 -0.214,0.587c0,0.129 0.029,0.221 0.086,0.278c0.128,0.128 0.334,0.192 0.619,0.192Z" style="fill:#dbdcc9;fill-rule:nonzero;"/><path d="M67.141,23.041c-0.527,-0 -0.964,-0.096 -1.313,-0.289c-0.349,-0.192 -0.594,-0.458 -0.737,-0.8c-0.113,-0.213 -0.17,-0.498 -0.17,-0.854c-0,-0.455 0.121,-0.971 0.363,-1.548c0.242,-0.576 0.619,-1.184 1.131,-1.825c0.598,-0.74 1.384,-1.49 2.359,-2.252c0.975,-0.761 2.024,-1.462 3.148,-2.102c1.11,-0.627 2.238,-1.16 3.384,-1.601c1.145,-0.441 2.188,-0.719 3.127,-0.833c0.313,-0.711 0.555,-1.466 0.726,-2.263c0.171,-0.797 0.256,-1.522 0.256,-2.177c0,-0.413 -0.039,-0.779 -0.117,-1.099c-0.079,-0.32 -0.196,-0.559 -0.353,-0.715c-0.711,0.071 -1.437,0.199 -2.177,0.384c-0.74,0.185 -1.434,0.434 -2.081,0.747c-0.648,0.313 -1.196,0.697 -1.644,1.153c-0.448,0.455 -0.729,0.989 -0.843,1.601l-0.021,0.363c-0,0.113 0.024,0.234 0.074,0.362c0.05,0.129 0.153,0.235 0.31,0.321c0.085,0.057 0.114,0.099 0.085,0.128c-0.028,0.028 -0.071,0.035 -0.128,0.021c-0.185,-0.043 -0.416,-0.149 -0.694,-0.32c-0.277,-0.171 -0.516,-0.402 -0.715,-0.694c-0.199,-0.292 -0.263,-0.637 -0.192,-1.035c0.128,-0.655 0.448,-1.196 0.961,-1.623c0.512,-0.426 1.135,-0.757 1.868,-0.992c0.732,-0.235 1.504,-0.406 2.316,-0.512c0.811,-0.107 1.579,-0.175 2.305,-0.203c-0.071,-0.043 -0.107,-0.1 -0.107,-0.171c0,-0.085 0.043,-0.135 0.128,-0.149c0.114,-0.072 0.264,-0.107 0.449,-0.107c0.156,-0 0.316,0.032 0.48,0.096c0.164,0.064 0.317,0.174 0.459,0.331l0.662,0.021l0.384,0.043c0.156,0.014 0.306,0.025 0.448,0.032c0.142,0.007 0.271,0.01 0.384,0.01c0.214,0 0.392,0.015 0.534,0.043c0.171,0.043 0.256,0.1 0.256,0.171c0,0.1 -0.156,0.128 -0.469,0.085c-0.285,-0.071 -0.595,-0.114 -0.929,-0.128c-0.334,-0.014 -0.687,-0.021 -1.057,-0.021c0.313,0.526 0.47,1.231 0.47,2.113c0,0.612 -0.075,1.274 -0.224,1.985c-0.15,0.712 -0.359,1.438 -0.63,2.178c0.441,0.057 0.861,0.163 1.26,0.32c0.398,0.157 0.704,0.377 0.917,0.662c0.072,0.085 0.107,0.178 0.107,0.277c0,0.143 -0.057,0.143 -0.171,0c-0.128,-0.128 -0.33,-0.22 -0.608,-0.277c-0.277,-0.057 -0.583,-0.093 -0.918,-0.107c-0.334,-0.014 -0.644,-0.014 -0.928,0c-0.755,1.864 -1.587,3.447 -2.498,4.75c-0.911,1.302 -1.829,2.38 -2.754,3.234c-0.939,0.853 -1.857,1.515 -2.753,1.985c-0.897,0.469 -1.715,0.811 -2.455,1.024c-0.612,0.171 -1.167,0.257 -1.665,0.257Zm-0.32,-0.641c0.298,0 0.629,-0.06 0.992,-0.181c0.363,-0.121 0.751,-0.317 1.164,-0.587c1.124,-0.726 2.159,-1.512 3.105,-2.359c0.947,-0.847 1.797,-1.704 2.551,-2.572c0.755,-0.854 1.409,-1.69 1.964,-2.508c0.555,-0.819 1.004,-1.562 1.345,-2.231c-0.811,0.171 -1.7,0.434 -2.668,0.79c-0.968,0.355 -1.936,0.789 -2.903,1.302c-0.968,0.512 -1.897,1.085 -2.786,1.718c-0.889,0.633 -1.662,1.306 -2.316,2.017c-0.626,0.669 -1.082,1.285 -1.366,1.847c-0.285,0.562 -0.427,1.049 -0.427,1.462c-0,0.399 0.121,0.715 0.363,0.95c0.242,0.235 0.569,0.352 0.982,0.352Z" style="fill:#dbdcc9;fill-rule:nonzero;"/><path d="M86.31,17.982c-0.285,-0 -0.491,-0.093 -0.619,-0.278c-0.128,-0.185 -0.192,-0.434 -0.192,-0.747c-0,-0.37 0.075,-0.815 0.224,-1.334c0.149,-0.52 0.331,-1.05 0.544,-1.591c-0.199,0.313 -0.434,0.655 -0.704,1.025c-0.271,0.37 -0.555,0.719 -0.854,1.046c-0.299,0.327 -0.594,0.598 -0.886,0.811c-0.292,0.214 -0.558,0.32 -0.8,0.32c-0.399,0 -0.673,-0.135 -0.822,-0.405c-0.15,-0.271 -0.224,-0.584 -0.224,-0.939c-0,-0.228 0.017,-0.452 0.053,-0.673c0.036,-0.22 0.082,-0.416 0.139,-0.587c0.256,-0.726 0.59,-1.491 1.003,-2.295c0.413,-0.804 0.865,-1.576 1.356,-2.316c0.491,-0.74 0.992,-1.38 1.504,-1.921c0.342,-0.341 0.598,-0.512 0.769,-0.512c0.085,-0 0.128,0.05 0.128,0.149c0,0.1 -0.046,0.242 -0.139,0.427c-0.092,0.185 -0.238,0.399 -0.437,0.641c-0.157,0.185 -0.37,0.522 -0.641,1.013c-0.27,0.491 -0.562,1.046 -0.875,1.665c-0.313,0.62 -0.608,1.235 -0.886,1.847c-0.277,0.612 -0.509,1.146 -0.694,1.601c-0.113,0.27 -0.195,0.512 -0.245,0.726c-0.05,0.213 -0.075,0.391 -0.075,0.533c0,0.342 0.114,0.513 0.342,0.513c0.299,-0 0.683,-0.278 1.152,-0.833c0.114,-0.142 0.278,-0.359 0.491,-0.651c0.214,-0.292 0.445,-0.612 0.694,-0.96c0.249,-0.349 0.488,-0.687 0.715,-1.014c0.228,-0.328 0.413,-0.598 0.555,-0.812l0.491,-0.896c0.071,-0.142 0.217,-0.26 0.438,-0.352c0.22,-0.093 0.423,-0.139 0.608,-0.139c0.128,-0 0.192,0.064 0.192,0.192c0,0.157 -0.032,0.317 -0.096,0.48c-0.064,0.164 -0.153,0.338 -0.266,0.523c-0.214,0.342 -0.42,0.747 -0.62,1.217c-0.199,0.47 -0.373,0.925 -0.523,1.366c-0.149,0.441 -0.245,0.79 -0.288,1.046c-0.057,0.242 -0.085,0.484 -0.085,0.726c-0,0.057 0.003,0.114 0.011,0.171c0.007,0.057 0.017,0.106 0.032,0.149c0.028,0.185 0.099,0.278 0.213,0.278c0.057,-0 0.128,-0.022 0.214,-0.064c0.313,-0.157 0.626,-0.381 0.939,-0.673c0.313,-0.291 0.612,-0.601 0.896,-0.928c0.143,-0.157 0.278,-0.306 0.406,-0.449c0.128,-0.142 0.249,-0.291 0.363,-0.448c0.042,-0.043 0.078,-0.064 0.107,-0.064c0.085,0 0.128,0.057 0.128,0.171c-0,0.085 -0.029,0.156 -0.086,0.213l-0.939,1.132c-0.157,0.185 -0.32,0.366 -0.491,0.544c-0.171,0.178 -0.334,0.345 -0.491,0.502c-0.285,0.27 -0.583,0.48 -0.897,0.629c-0.313,0.15 -0.59,0.225 -0.832,0.225Z" style="fill:#dbdcc9;fill-rule:nonzero;"/><path d="M96.172,21.674c-0.299,0 -0.544,-0.138 -0.736,-0.416c-0.192,-0.277 -0.289,-0.608 -0.289,-0.992c0,-0.1 0.011,-0.2 0.032,-0.299c0.022,-0.1 0.04,-0.199 0.054,-0.299c0.071,-0.285 0.181,-0.63 0.331,-1.035c0.149,-0.406 0.327,-0.836 0.533,-1.292c0.207,-0.455 0.413,-0.889 0.619,-1.302c0.207,-0.413 0.402,-0.768 0.587,-1.067c0.072,-0.1 0.185,-0.281 0.342,-0.545c0.157,-0.263 0.32,-0.548 0.491,-0.854c0.171,-0.306 0.32,-0.572 0.448,-0.8c0.256,-0.455 0.384,-0.776 0.384,-0.961c0,-0.242 -0.249,-0.156 -0.747,0.257c-0.355,0.313 -0.757,0.711 -1.206,1.195c-0.448,0.484 -0.893,1.003 -1.334,1.558c-0.441,0.555 -0.84,1.096 -1.195,1.623c-0.071,0.128 -0.175,0.256 -0.31,0.384c-0.135,0.128 -0.316,0.192 -0.544,0.192c-0.086,-0 -0.185,-0.025 -0.299,-0.075c-0.114,-0.05 -0.171,-0.181 -0.171,-0.395c0,-0.27 0.114,-0.622 0.342,-1.056c0.227,-0.434 0.509,-0.908 0.843,-1.42c0.334,-0.512 0.669,-1.032 1.003,-1.558c0.335,-0.527 0.609,-1.018 0.822,-1.473c0.114,-0.242 0.196,-0.441 0.246,-0.598c0.049,-0.156 0.074,-0.277 0.074,-0.363c0,-0.099 -0.035,-0.149 -0.106,-0.149c-0.171,-0 -0.463,0.185 -0.876,0.555c-0.284,0.256 -0.597,0.569 -0.939,0.939c-0.356,0.384 -0.711,0.801 -1.067,1.249c-0.356,0.448 -0.705,0.907 -1.046,1.377c-0.342,0.484 -0.662,0.946 -0.961,1.387c-0.313,0.456 -0.59,0.875 -0.832,1.26c-0.242,0.384 -0.427,0.704 -0.555,0.96c-0.1,0.214 -0.271,0.321 -0.513,0.321c-0.114,-0 -0.217,-0.05 -0.309,-0.15c-0.093,-0.1 -0.125,-0.242 -0.096,-0.427c0.398,-0.754 0.718,-1.437 0.96,-2.049c0.242,-0.612 0.474,-1.217 0.694,-1.815c0.221,-0.597 0.516,-1.259 0.886,-1.985c0.114,-0.213 0.324,-0.416 0.63,-0.608c0.306,-0.192 0.565,-0.288 0.779,-0.288c0.228,-0 0.341,0.071 0.341,0.213c0,0.114 -0.071,0.285 -0.213,0.512c-0.171,0.271 -0.384,0.641 -0.64,1.11c-0.257,0.47 -0.513,0.957 -0.769,1.463c-0.256,0.505 -0.477,0.95 -0.662,1.334l0.555,-0.811c0.256,-0.37 0.552,-0.787 0.886,-1.249c0.335,-0.463 0.701,-0.943 1.1,-1.441c0.398,-0.484 0.797,-0.918 1.195,-1.302c0.384,-0.384 0.758,-0.69 1.121,-0.918c0.363,-0.228 0.686,-0.32 0.971,-0.278c0.313,0.057 0.526,0.171 0.64,0.342c0.114,0.171 0.171,0.377 0.171,0.619c0,0.157 -0.089,0.391 -0.267,0.705c-0.178,0.313 -0.395,0.654 -0.651,1.024c-0.256,0.37 -0.505,0.726 -0.747,1.067c-0.242,0.342 -0.427,0.62 -0.555,0.833c-0.1,0.171 -0.253,0.416 -0.459,0.736c-0.206,0.321 -0.402,0.63 -0.587,0.929c-0.185,0.299 -0.299,0.491 -0.341,0.576c-0.029,0.072 -0.029,0.114 -0,0.128c0.028,0.015 0.071,-0.021 0.128,-0.106c0.142,-0.228 0.341,-0.523 0.597,-0.886c0.256,-0.363 0.538,-0.74 0.844,-1.132c0.305,-0.391 0.601,-0.75 0.885,-1.078c0.242,-0.284 0.52,-0.572 0.833,-0.864c0.313,-0.292 0.626,-0.537 0.939,-0.737c0.313,-0.199 0.591,-0.298 0.833,-0.298c0.299,-0 0.498,0.074 0.597,0.224c0.1,0.149 0.15,0.324 0.15,0.523c-0,0.171 -0.086,0.441 -0.256,0.811c-0.171,0.37 -0.399,0.804 -0.683,1.302c-0.1,0.185 -0.253,0.477 -0.459,0.875c-0.207,0.399 -0.42,0.826 -0.641,1.281c-0.22,0.455 -0.409,0.854 -0.565,1.195c-0.185,0.385 -0.374,0.812 -0.566,1.281c-0.192,0.47 -0.359,0.918 -0.502,1.345c-0.142,0.427 -0.228,0.769 -0.256,1.025l0,0.064c0,0.099 0.057,0.149 0.171,0.149c-0,0.014 0.007,0.022 0.021,0.022c0.114,-0 0.263,-0.057 0.448,-0.171c0.157,-0.086 0.402,-0.292 0.737,-0.619c0.334,-0.328 0.694,-0.698 1.078,-1.11c0.384,-0.413 0.743,-0.801 1.078,-1.164c0.334,-0.363 0.573,-0.629 0.715,-0.8l1.003,-1.174c0.271,-0.328 0.463,-0.548 0.577,-0.662l0.854,-0.982c0.042,-0.043 0.078,-0.064 0.106,-0.064c0.086,0 0.128,0.057 0.128,0.171c0,0.071 -0.028,0.142 -0.085,0.213c-0.157,0.2 -0.324,0.406 -0.502,0.619c-0.178,0.214 -0.345,0.413 -0.501,0.598c-0.015,0.014 -0.128,0.157 -0.342,0.427c-0.213,0.27 -0.484,0.605 -0.811,1.003c-0.327,0.399 -0.655,0.801 -0.982,1.206c-0.327,0.406 -0.612,0.758 -0.854,1.057c-0.242,0.299 -0.384,0.477 -0.427,0.534c-0.284,0.327 -0.63,0.633 -1.035,0.918c-0.406,0.284 -0.843,0.426 -1.313,0.426Z" style="fill:#dbdcc9;fill-rule:nonzero;"/><path d="M103.985,20.991c-0.555,0 -0.982,-0.224 -1.281,-0.672c-0.299,-0.448 -0.448,-1.085 -0.448,-1.911c-0,-0.142 0.003,-0.284 0.011,-0.426c0.007,-0.143 0.017,-0.292 0.032,-0.449c0.085,-0.697 0.302,-1.458 0.651,-2.284c0.348,-0.825 0.885,-1.708 1.611,-2.647c0.484,-0.626 1.011,-1.096 1.58,-1.409c0.569,-0.313 1.117,-0.469 1.644,-0.469c0.37,-0 0.697,0.071 0.982,0.213c0.341,0.185 0.512,0.52 0.512,1.003c-0,0.356 -0.128,0.751 -0.384,1.185c-0.257,0.434 -0.691,0.85 -1.303,1.249c-0.811,0.512 -1.487,0.854 -2.027,1.025c-0.541,0.17 -0.975,0.263 -1.303,0.277c-0.113,0.157 -0.227,0.402 -0.341,0.737c-0.114,0.334 -0.21,0.683 -0.288,1.046c-0.079,0.362 -0.132,0.686 -0.16,0.971l-0.022,0.384c0,0.427 0.075,0.793 0.224,1.099c0.15,0.306 0.417,0.459 0.801,0.459c0.341,0 0.726,-0.124 1.153,-0.373c0.427,-0.249 0.85,-0.548 1.27,-0.897c0.42,-0.348 0.79,-0.683 1.11,-1.003c0.32,-0.32 0.544,-0.559 0.672,-0.715l1.58,-1.836l0.854,-0.982c0.042,-0.043 0.078,-0.064 0.106,-0.064c0.086,0 0.128,0.057 0.128,0.171c0,0.042 -0.035,0.114 -0.106,0.213c-0.143,0.2 -0.303,0.406 -0.481,0.619c-0.177,0.214 -0.345,0.413 -0.501,0.598c-0.199,0.228 -0.445,0.519 -0.737,0.875c-0.291,0.356 -0.597,0.726 -0.918,1.11c-0.32,0.384 -0.629,0.719 -0.928,1.004c-0.541,0.526 -1.121,0.974 -1.74,1.344c-0.619,0.37 -1.27,0.555 -1.953,0.555Zm0.47,-5.656c0.199,-0.015 0.448,-0.093 0.747,-0.235c0.299,-0.143 0.612,-0.313 0.939,-0.513c0.327,-0.199 0.63,-0.402 0.907,-0.608c0.278,-0.206 0.502,-0.381 0.673,-0.523c0.327,-0.256 0.569,-0.541 0.725,-0.854c0.157,-0.313 0.235,-0.583 0.235,-0.811c0,-0.157 -0.039,-0.292 -0.117,-0.406c-0.079,-0.113 -0.196,-0.17 -0.352,-0.17c-0.299,-0 -0.623,0.146 -0.972,0.437c-0.348,0.292 -0.697,0.662 -1.046,1.11c-0.348,0.449 -0.676,0.904 -0.982,1.366c-0.306,0.463 -0.558,0.865 -0.757,1.207Z" style="fill:#dbdcc9;fill-rule:nonzero;"/><path d="M114.616,9.486c-0.171,-0 -0.303,-0.054 -0.395,-0.161c-0.093,-0.106 -0.139,-0.238 -0.139,-0.394c-0,-0.214 0.078,-0.392 0.235,-0.534c0.156,-0.142 0.327,-0.214 0.512,-0.214c0.356,0 0.534,0.178 0.534,0.534c-0,0.199 -0.075,0.377 -0.225,0.534c-0.149,0.156 -0.323,0.235 -0.522,0.235Zm-9.649,18.486c-0.441,-0 -0.826,-0.135 -1.153,-0.406c-0.327,-0.27 -0.491,-0.697 -0.491,-1.281c0.014,-0.683 0.253,-1.423 0.715,-2.22c0.463,-0.797 1.121,-1.601 1.975,-2.412c0.484,-0.455 1.049,-0.932 1.697,-1.43c0.647,-0.498 1.309,-0.968 1.985,-1.409c0.676,-0.441 1.277,-0.811 1.804,-1.11c0.498,-1.096 0.975,-2.195 1.43,-3.298c0.456,-1.103 0.811,-2.124 1.067,-3.063c0.029,-0.157 0.079,-0.271 0.15,-0.342c0.071,-0.071 0.135,-0.107 0.192,-0.107c0.142,0 0.192,0.129 0.149,0.385c-0.042,0.37 -0.145,0.875 -0.309,1.515c-0.164,0.641 -0.363,1.327 -0.598,2.06c-0.235,0.733 -0.473,1.441 -0.715,2.124c0.27,-0.142 0.512,-0.256 0.726,-0.341l0.534,-0.214c0.028,0 0.049,-0.003 0.064,-0.01c0.014,-0.008 0.028,-0.011 0.042,-0.011c0.143,-0 0.214,0.064 0.214,0.192c-0,0.1 -0.05,0.157 -0.15,0.171c-0.17,0.071 -0.395,0.167 -0.672,0.288c-0.278,0.121 -0.594,0.281 -0.95,0.48c-0.384,1.025 -0.797,2.028 -1.238,3.01c-0.441,0.982 -0.875,1.836 -1.302,2.562c-0.769,1.309 -1.47,2.319 -2.103,3.031c-0.633,0.711 -1.22,1.21 -1.761,1.494c-0.455,0.228 -0.889,0.342 -1.302,0.342Zm-0.128,-0.491c0.299,-0 0.59,-0.1 0.875,-0.299c0.327,-0.228 0.68,-0.562 1.057,-1.003c0.377,-0.442 0.754,-0.943 1.131,-1.505c0.377,-0.562 0.729,-1.128 1.057,-1.697c0.327,-0.57 0.597,-1.089 0.811,-1.559c0.228,-0.455 0.466,-0.942 0.715,-1.462c0.249,-0.519 0.494,-1.049 0.736,-1.59c-0.512,0.327 -1.049,0.683 -1.611,1.067c-0.562,0.384 -1.114,0.797 -1.655,1.238c-0.483,0.399 -0.967,0.84 -1.451,1.324c-0.484,0.484 -0.929,0.974 -1.334,1.473c-0.406,0.498 -0.733,0.985 -0.982,1.462c-0.249,0.477 -0.374,0.921 -0.374,1.334c0,0.384 0.1,0.683 0.299,0.897c0.199,0.213 0.441,0.32 0.726,0.32Z" style="fill:#dbdcc9;fill-rule:nonzero;"/><path d="M112.822,22.55c-0.298,-0 -0.59,-0.036 -0.875,-0.107c-0.284,-0.071 -0.491,-0.178 -0.619,-0.32c-0.142,-0.157 -0.213,-0.356 -0.213,-0.598c-0,-0.527 0.284,-1.017 0.854,-1.473c0.512,-0.384 1.06,-0.715 1.643,-0.992c0.584,-0.278 1.167,-0.531 1.751,-0.758c0.313,-0.128 0.661,-0.267 1.046,-0.417c0.384,-0.149 0.75,-0.298 1.099,-0.448c0.349,-0.149 0.637,-0.288 0.864,-0.416c0.171,-0.441 0.299,-0.986 0.385,-1.633c0.085,-0.648 0.149,-1.302 0.192,-1.964c0.043,-0.662 0.078,-1.227 0.107,-1.697c-0.684,0.811 -1.317,1.573 -1.9,2.284c-0.584,0.726 -1.139,1.402 -1.665,2.028c-0.071,0.071 -0.121,0.107 -0.15,0.107c-0.057,-0 -0.085,-0.057 -0.085,-0.171c-0,-0.142 0.043,-0.256 0.128,-0.342c0.114,-0.142 0.299,-0.37 0.555,-0.683c0.256,-0.313 0.541,-0.661 0.854,-1.046c0.313,-0.384 0.619,-0.757 0.918,-1.12c0.299,-0.363 0.558,-0.68 0.779,-0.95c0.22,-0.271 0.359,-0.441 0.416,-0.513c0,-0.583 0.196,-1.021 0.587,-1.312c0.392,-0.292 0.794,-0.438 1.206,-0.438c0.2,-0 0.392,0.036 0.577,0.107c0.099,0.042 0.149,0.092 0.149,0.149c0,0.043 -0.071,0.086 -0.213,0.128c-0.342,0.1 -0.584,0.288 -0.726,0.566c-0.143,0.277 -0.231,0.612 -0.267,1.003c-0.036,0.392 -0.053,0.801 -0.053,1.228c-0,0.54 -0.022,1.124 -0.064,1.75c-0.043,0.626 -0.114,1.181 -0.214,1.665c1.025,-0.569 2.024,-1.163 2.999,-1.782c0.975,-0.619 1.889,-1.206 2.743,-1.761c0.854,-0.541 1.626,-1.029 2.316,-1.463c0.691,-0.434 1.263,-0.758 1.719,-0.971c0.697,-0.327 1.359,-0.583 1.985,-0.768c0.626,-0.185 1.288,-0.278 1.985,-0.278c0.683,0 1.395,0.093 2.135,0.278c0.441,0.113 0.768,0.359 0.982,0.736c0.213,0.377 0.32,0.751 0.32,1.121c0,0.299 -0.071,0.569 -0.213,0.811c-0.356,0.541 -0.748,0.918 -1.174,1.131c-0.427,0.214 -0.883,0.363 -1.367,0.449c-0.071,0.028 -0.11,0.024 -0.117,-0.011c-0.007,-0.036 0.018,-0.068 0.075,-0.096c0.156,-0.086 0.359,-0.231 0.608,-0.438c0.249,-0.206 0.495,-0.445 0.737,-0.715c0.241,-0.27 0.426,-0.534 0.555,-0.79c0.142,-0.313 0.213,-0.576 0.213,-0.79c-0,-0.227 -0.071,-0.43 -0.213,-0.608c-0.143,-0.178 -0.378,-0.309 -0.705,-0.395c-0.384,-0.099 -0.79,-0.149 -1.217,-0.149c-0.697,-0 -1.387,0.121 -2.07,0.363c-0.683,0.242 -1.331,0.526 -1.943,0.853c-0.341,0.185 -0.775,0.431 -1.302,0.737c-0.527,0.306 -1.071,0.623 -1.633,0.95c-0.562,0.327 -1.078,0.626 -1.548,0.896c-0.882,0.513 -1.821,1.046 -2.817,1.601c-0.997,0.555 -2.042,1.11 -3.138,1.665c-0.37,0.869 -0.808,1.641 -1.313,2.317c-0.505,0.675 -1.043,1.248 -1.612,1.718c-0.583,0.484 -1.177,0.868 -1.782,1.153c-0.605,0.284 -1.192,0.476 -1.761,0.576c-0.071,0.014 -0.153,0.025 -0.246,0.032c-0.092,0.007 -0.181,0.011 -0.267,0.011Zm-0.491,-0.47c0.257,0 0.52,-0.057 0.79,-0.171c1.566,-0.583 2.925,-1.586 4.077,-3.01c0.072,-0.085 0.182,-0.227 0.331,-0.427c0.15,-0.199 0.296,-0.391 0.438,-0.576c0.142,-0.185 0.235,-0.313 0.277,-0.384c-0.227,0.128 -0.512,0.267 -0.853,0.416c-0.342,0.15 -0.691,0.295 -1.046,0.438c-0.356,0.142 -0.669,0.277 -0.94,0.405c-0.512,0.228 -1.024,0.474 -1.537,0.737c-0.512,0.263 -0.989,0.565 -1.43,0.907c-0.256,0.185 -0.455,0.388 -0.598,0.608c-0.142,0.221 -0.213,0.417 -0.213,0.587c-0,0.129 0.028,0.221 0.085,0.278c0.128,0.128 0.335,0.192 0.619,0.192Z" style="fill:#dbdcc9;fill-rule:nonzero;"/><path d="M41.419,30.146l-1.879,0l-0,-0.953l4.85,0l-0,0.953l-1.879,0l-0,5.179l-1.092,0l0,-5.179Z" style="fill:#dbdcc9;fill-rule:nonzero;"/><path d="M46.832,29.193l4.062,0l0,0.953l-2.971,0l0,1.559l2.815,-0l0,0.918l-2.815,-0l0,1.732l3.127,0l-0,0.97l-4.218,0l0,-6.132Z" style="fill:#dbdcc9;fill-rule:nonzero;"/><path d="M53.847,29.193l2.131,0c0.288,0 0.568,0.031 0.84,0.091c0.271,0.061 0.512,0.161 0.723,0.299c0.211,0.139 0.38,0.321 0.507,0.546c0.127,0.225 0.19,0.499 0.19,0.822c0,0.445 -0.125,0.807 -0.377,1.087c-0.251,0.28 -0.593,0.47 -1.026,0.568l1.637,2.719l-1.316,0l-1.421,-2.598l-0.796,-0l-0,2.598l-1.092,0l0,-6.132Zm1.984,2.642c0.155,-0 0.311,-0.012 0.467,-0.035c0.156,-0.023 0.296,-0.066 0.42,-0.13c0.124,-0.063 0.227,-0.154 0.308,-0.272c0.081,-0.119 0.121,-0.27 0.121,-0.455c-0,-0.168 -0.038,-0.305 -0.113,-0.412c-0.075,-0.106 -0.17,-0.192 -0.285,-0.255c-0.116,-0.064 -0.247,-0.107 -0.394,-0.13c-0.148,-0.023 -0.291,-0.035 -0.429,-0.035l-0.987,0l-0,1.724l0.892,-0Z" style="fill:#dbdcc9;fill-rule:nonzero;"/><path d="M62.95,29.193l0.944,0l2.641,6.132l-1.247,0l-0.572,-1.403l-2.658,0l-0.555,1.403l-1.221,0l2.668,-6.132Zm1.385,3.794l-0.944,-2.495l-0.961,2.495l1.905,-0Z" style="fill:#dbdcc9;fill-rule:nonzero;"/><path d="M68.873,29.193l2.001,0c0.352,0 0.67,0.032 0.953,0.096c0.283,0.063 0.525,0.167 0.727,0.311c0.202,0.145 0.358,0.33 0.468,0.555c0.11,0.225 0.164,0.496 0.164,0.814c0,0.34 -0.063,0.626 -0.19,0.857c-0.127,0.231 -0.299,0.417 -0.515,0.559c-0.217,0.141 -0.47,0.244 -0.758,0.307c-0.289,0.064 -0.595,0.096 -0.918,0.096l-0.84,-0l-0,2.537l-1.092,0l0,-6.132Zm1.854,2.677c0.179,-0 0.349,-0.013 0.511,-0.039c0.161,-0.026 0.306,-0.073 0.433,-0.139c0.127,-0.066 0.228,-0.157 0.303,-0.273c0.075,-0.115 0.112,-0.265 0.112,-0.45c0,-0.179 -0.037,-0.325 -0.112,-0.438c-0.075,-0.112 -0.175,-0.2 -0.299,-0.264c-0.124,-0.063 -0.265,-0.105 -0.424,-0.125c-0.159,-0.02 -0.322,-0.031 -0.49,-0.031l-0.796,0l-0,1.759l0.762,-0Z" style="fill:#dbdcc9;fill-rule:nonzero;"/><rect x="75.888" y="29.193" width="1.091" height="6.132" style="fill:#dbdcc9;fill-rule:nonzero;"/><path d="M83.077,33.342c-0,0.225 -0.025,0.462 -0.074,0.71c-0.049,0.248 -0.14,0.479 -0.273,0.693c-0.132,0.213 -0.32,0.39 -0.563,0.528c-0.242,0.139 -0.554,0.208 -0.935,0.208c-0.496,-0 -0.893,-0.124 -1.191,-0.372c-0.297,-0.249 -0.501,-0.575 -0.61,-0.979l1.004,-0.286c0.052,0.202 0.148,0.362 0.286,0.481c0.139,0.118 0.303,0.177 0.494,0.177c0.156,0 0.284,-0.029 0.385,-0.086c0.101,-0.058 0.179,-0.14 0.234,-0.247c0.055,-0.107 0.094,-0.234 0.117,-0.381c0.023,-0.147 0.035,-0.308 0.035,-0.481l-0,-4.114l1.091,0l-0,4.149Z" style="fill:#dbdcc9;fill-rule:nonzero;"/><path d="M87.927,29.193l0.944,0l2.641,6.132l-1.247,0l-0.572,-1.403l-2.658,0l-0.555,1.403l-1.221,0l2.668,-6.132Zm1.385,3.794l-0.944,-2.495l-0.961,2.495l1.905,-0Z" style="fill:#dbdcc9;fill-rule:nonzero;"/></g></svg>