<svg width="137" height="42" viewBox="0 0 137 42" fill="none" xmlns="http://www.w3.org/2000/svg">
<g clip-path="url(#clip0_1_106)">
<path d="M12.01 1.19C16.65 1.19 19.98 2.35 22.07 4.11C23.6 5.41 24.39 7.31 24.39 9.63C24.39 12.09 23.46 14.17 21.75 15.7C19.06 18.11 16.79 18.53 11.83 18.53C10.62 18.53 9.88 18.48 8.63 18.39V26.69C8.63 30.21 9.23 30.82 12.99 31V31.88H0V31C3.62 30.72 3.89 30.21 3.89 26.23V6.34C3.89 2.91 3.43 2.35 0 2.08V1.2H12.01V1.19ZM8.63 16.53C9.7 16.62 10.53 16.67 11.46 16.67C16.56 16.67 19.34 14.03 19.34 9.86C19.34 4.76 16.56 2.91 10.25 2.91C8.91 2.91 8.63 3.33 8.63 4.58V16.54V16.53Z" fill="#DBDCC9"/>
<path d="M32.57 14.91C34.89 11.57 36.19 10.55 38.13 10.55C39.71 10.55 40.68 11.48 40.68 13.01C40.68 14.31 39.98 15.1 38.87 15.1C38.27 15.1 37.76 14.87 37.02 14.17C36.51 13.71 36.09 13.47 35.81 13.47C34.51 13.47 32.57 15.79 32.57 17.27V27.7C32.57 30.34 33.36 31.04 36.51 31.18V31.88H25.38V31.18C28.35 30.62 28.67 30.3 28.67 27.98V16.39C28.67 14.35 28.25 13.61 27.09 13.61C26.53 13.61 26.12 13.66 25.47 13.8V13.06C28.2 12.18 29.87 11.53 32.33 10.56L32.56 10.65V14.91H32.57Z" fill="#DBDCC9"/>
<path d="M51.02 32.34C45.41 32.34 41.01 27.75 41.01 21.31C41.01 14.87 45.18 10.56 51.44 10.56C57.1 10.56 61.45 14.78 61.45 21.18C61.45 27.58 57.28 32.35 51.02 32.35V32.34ZM54.96 14.17C53.85 12.78 52.55 11.85 50.56 11.85C47.36 11.85 45.18 14.59 45.18 19.22C45.18 22.88 45.92 26.22 47.64 28.72C48.66 30.2 50.14 31.04 51.81 31.04C55.24 31.04 57.28 27.79 57.28 22.42C57.28 19.27 56.45 16.07 54.96 14.17Z" fill="#DBDCC9"/>
<path d="M73.75 20.85C76.72 22.66 77.83 23.91 77.83 26.55C77.83 29.66 74.86 32.34 71.34 32.34C70.37 32.34 69.02 32.29 67.96 31.92C66.85 31.55 66.34 31.5 65.83 31.5C65.27 31.5 65 31.59 64.72 32.06H64.12V24.78H64.86C65.83 29.28 67.55 31.32 70.75 31.32C73.11 31.32 74.6 29.79 74.6 27.89C74.6 26.45 73.67 25.25 72.14 24.41L69.64 23.02C65.79 20.89 64.08 18.66 64.08 16.3C64.08 12.64 66.68 10.6 70.48 10.6C71.59 10.6 72.61 10.65 73.59 11.11C74.1 11.34 74.56 11.48 74.89 11.48C75.08 11.48 75.26 11.43 75.63 11.02H76.14L76.37 17.32H75.67C74.6 13.15 73.21 11.62 70.43 11.62C68.44 11.62 66.95 12.59 66.95 14.77C66.95 15.79 67.65 17.13 68.94 17.92L73.76 20.84L73.75 20.85Z" fill="#DBDCC9"/>
<path d="M85.72 14.22C87.76 11.67 89.8 10.56 92.4 10.56C96.9 10.56 100.14 14.69 100.14 20.43C100.14 27.15 95.92 32.34 90.4 32.34C88.45 32.34 87.39 31.88 85.72 30.35V37.63C85.72 40.55 86.32 41.06 89.8 41.11V41.94H78.58V41.15C81.32 40.87 81.82 40.36 81.82 37.95V16.26C81.82 14.08 81.5 13.62 79.92 13.62C79.5 13.62 79.18 13.62 78.76 13.67V12.93C81.31 12.14 82.98 11.54 85.44 10.57L85.72 10.66V14.23V14.22ZM85.72 27.8C85.72 29.19 88.36 30.86 90.54 30.86C93.88 30.86 96.15 27.38 96.15 22.28C96.15 16.86 93.88 13.33 90.45 13.33C88.32 13.33 85.72 15 85.72 16.39V27.79V27.8Z" fill="#DBDCC9"/>
<path d="M120.69 24.6C118.88 29.65 115.64 32.34 111 32.34C105.53 32.34 102.19 28.21 102.19 21.82C102.19 15.43 105.94 10.56 111.79 10.56C114.66 10.56 116.75 11.67 118.23 13.76C119.16 15.06 119.62 16.54 119.81 19.04H105.53C105.76 22.56 105.99 24.37 107.66 26.6C108.96 28.32 110.67 29.15 112.81 29.15C115.92 29.15 117.68 27.71 119.95 24.28L120.69 24.6ZM115.08 17.55C114.57 13.8 113.6 12.22 110.54 12.22C107.94 12.22 106.14 14.07 105.63 17.55H115.09H115.08Z" fill="#DBDCC9"/>
<path d="M128.01 14.91C130.33 11.57 131.63 10.55 133.57 10.55C135.15 10.55 136.12 11.48 136.12 13.01C136.12 14.31 135.42 15.1 134.31 15.1C133.71 15.1 133.2 14.87 132.46 14.17C131.95 13.71 131.53 13.47 131.25 13.47C129.95 13.47 128.01 15.79 128.01 17.27V27.7C128.01 30.34 128.8 31.04 131.95 31.18V31.88H120.82V31.18C123.79 30.62 124.11 30.3 124.11 27.98V16.39C124.11 14.35 123.69 13.61 122.53 13.61C121.97 13.61 121.56 13.66 120.91 13.8V13.06C123.65 12.18 125.31 11.53 127.77 10.56L128 10.65V14.91H128.01Z" fill="#DBDCC9"/>
<path d="M129.54 13.2C129.54 13.2 129.67 12.71 129.98 12.37C131.18 11.08 133.83 7.74001 131.41 5.46001C128.36 2.59001 131.8 -1.39999 134.94 0.480007C139.91 3.44001 132.34 11.92 129.98 13.14C129.17 13.56 129.42 13.55 129.37 13.55C129.27 13.55 129.53 13.2 129.53 13.2H129.54Z" fill="#DBDCC9"/>
</g>
<defs>
<clipPath id="clip0_1_106">
<rect width="136.6" height="41.94" fill="white"/>
</clipPath>
</defs>
</svg>
