<svg width="119" height="119" viewBox="0 0 119 119" fill="none" xmlns="http://www.w3.org/2000/svg">
<g clip-path="url(#clip0_3_56)">
<path d="M59.03 114.4C89.61 114.4 114.4 89.6099 114.4 59.0299C114.4 28.4499 89.61 3.65991 59.03 3.65991C28.45 3.65991 3.66003 28.4499 3.66003 59.0299C3.66003 89.6099 28.45 114.4 59.03 114.4Z" stroke="#97D100" stroke-miterlimit="10"/>
<path d="M59.03 117.56C91.3552 117.56 117.56 91.3552 117.56 59.03C117.56 26.7048 91.3552 0.5 59.03 0.5C26.7048 0.5 0.5 26.7048 0.5 59.03C0.5 91.3552 26.7048 117.56 59.03 117.56Z" stroke="#97D100" stroke-miterlimit="10"/>
<path d="M80.91 63.8799H86.16C87.78 63.8799 89.08 65.1899 89.08 66.7999V71.5899C89.08 73.2099 87.77 74.5099 86.16 74.5099H31.9C30.28 74.5099 28.98 73.1999 28.98 71.5899V66.7999C28.98 65.1799 30.29 63.8799 31.9 63.8799H37.15" stroke="#97D100" stroke-miterlimit="10"/>
<path d="M42.84 74.5299C38.99 70.5099 36.62 65.0499 36.62 59.0399C36.62 46.6599 46.65 36.6299 59.03 36.6299C71.41 36.6299 81.44 46.6599 81.44 59.0399C81.44 65.0499 79.07 70.5099 75.22 74.5299" stroke="#97D100" stroke-miterlimit="10"/>
</g>
<defs>
<clipPath id="clip0_3_56">
<rect width="118.06" height="118.06" fill="white"/>
</clipPath>
</defs>
</svg>
