<svg width="145" height="45" viewBox="0 0 145 45" fill="none" xmlns="http://www.w3.org/2000/svg">
<path d="M12.7 1.26001C17.6 1.26001 21.13 2.49001 23.34 4.35001C24.96 5.72001 25.79 7.73001 25.79 10.18C25.79 12.78 24.81 14.98 23 16.6C20.16 19.15 17.75 19.59 12.51 19.59C11.24 19.59 10.45 19.54 9.13 19.44V28.21C9.13 31.94 9.77 32.57 13.74 32.77V33.7H0V32.77C3.82 32.48 4.12 31.94 4.12 27.72V6.70001C4.12 3.07001 3.63 2.48001 0 2.19001V1.26001H12.7ZM9.12 17.49C10.25 17.59 11.13 17.64 12.11 17.64C17.5 17.64 20.44 14.85 20.44 10.43C20.44 5.04001 17.5 3.08001 10.83 3.08001C9.41 3.08001 9.11 3.52001 9.11 4.84001V17.49H9.12Z" fill="#002B2C"/>
<path d="M34.44 15.7699C36.89 12.2399 38.26 11.1599 40.32 11.1599C41.99 11.1599 43.02 12.1399 43.02 13.7599C43.02 15.1299 42.28 15.9699 41.11 15.9699C40.47 15.9699 39.93 15.7299 39.15 14.9899C38.61 14.4999 38.17 14.2499 37.88 14.2499C36.51 14.2499 34.45 16.6999 34.45 18.2699V29.2999C34.45 32.0899 35.28 32.8299 38.62 32.9799V33.7199H26.86V32.9799C30 32.3899 30.34 32.0499 30.34 29.5999V17.3399C30.34 15.1799 29.9 14.3999 28.67 14.3999C28.08 14.3999 27.64 14.4499 26.95 14.5999V13.8199C29.84 12.8899 31.61 12.1999 34.21 11.1699L34.45 11.2699V15.7799L34.44 15.7699Z" fill="#002B2C"/>
<path d="M53.95 34.1999C48.02 34.1999 43.36 29.3499 43.36 22.5299C43.36 15.7099 47.77 11.1599 54.39 11.1599C60.37 11.1599 64.98 15.6199 64.98 22.3899C64.98 29.1599 60.57 34.1999 53.95 34.1999ZM58.12 14.9799C56.94 13.5099 55.57 12.5299 53.46 12.5299C50.08 12.5299 47.77 15.4199 47.77 20.3199C47.77 24.1899 48.55 27.7199 50.37 30.3699C51.45 31.9399 53.02 32.8199 54.78 32.8199C58.41 32.8199 60.56 29.3899 60.56 23.6999C60.56 20.3699 59.68 16.9799 58.11 14.9699L58.12 14.9799Z" fill="#002B2C"/>
<path d="M77.98 22.05C81.12 23.96 82.29 25.29 82.29 28.08C82.29 31.36 79.15 34.21 75.43 34.21C74.4 34.21 72.98 34.16 71.85 33.77C70.67 33.38 70.13 33.33 69.59 33.33C69 33.33 68.71 33.43 68.41 33.92H67.77V26.22H68.55C69.58 30.97 71.39 33.13 74.78 33.13C77.28 33.13 78.85 31.51 78.85 29.5C78.85 27.98 77.87 26.71 76.25 25.82L73.6 24.35C69.53 22.09 67.72 19.74 67.72 17.24C67.72 13.37 70.47 11.21 74.48 11.21C75.66 11.21 76.74 11.26 77.76 11.75C78.3 11.99 78.79 12.14 79.13 12.14C79.33 12.14 79.52 12.09 79.91 11.65H80.45L80.7 18.32H79.96C78.83 13.91 77.36 12.29 74.42 12.29C72.31 12.29 70.74 13.32 70.74 15.62C70.74 16.7 71.48 18.12 72.85 18.95L77.95 22.04L77.98 22.05Z" fill="#002B2C"/>
<path d="M90.64 15.0399C92.8 12.3399 94.95 11.1699 97.7 11.1699C102.46 11.1699 105.89 15.5299 105.89 21.6099C105.89 28.7199 101.43 34.2099 95.6 34.2099C93.54 34.2099 92.41 33.7199 90.65 32.0999V39.7999C90.65 42.8899 91.29 43.4299 94.96 43.4799V44.3599H83.1V43.5299C85.99 43.2399 86.53 42.6999 86.53 40.1499V17.2099C86.53 14.9099 86.19 14.4199 84.52 14.4199C84.08 14.4199 83.74 14.4199 83.29 14.4699V13.6899C85.99 12.8599 87.75 12.2199 90.35 11.1899L90.64 11.2899V15.0599V15.0399ZM90.64 29.3999C90.64 30.8699 93.43 32.6399 95.74 32.6399C99.27 32.6399 101.67 28.9599 101.67 23.5699C101.67 17.8299 99.27 14.1099 95.64 14.1099C93.38 14.1099 90.64 15.8699 90.64 17.3499V29.4099V29.3999Z" fill="#002B2C"/>
<path d="M127.63 26.0199C125.72 31.3599 122.29 34.2099 117.38 34.2099C111.6 34.2099 108.07 29.8499 108.07 23.0799C108.07 16.3099 112.04 11.1699 118.22 11.1699C121.26 11.1699 123.47 12.3499 125.03 14.5499C126.01 15.9199 126.5 17.4899 126.7 20.1399H111.6C111.84 23.8699 112.09 25.7799 113.86 28.1299C115.23 29.9399 117.05 30.8299 119.3 30.8299C122.58 30.8299 124.45 29.3099 126.85 25.6799L127.63 26.0199ZM121.7 18.5699C121.16 14.5999 120.13 12.9299 116.9 12.9299C114.15 12.9299 112.24 14.8899 111.7 18.5699H121.7Z" fill="#002B2C"/>
<path d="M135.37 15.7699C137.82 12.2399 139.19 11.1599 141.25 11.1599C142.92 11.1599 143.95 12.1399 143.95 13.7599C143.95 15.1299 143.21 15.9699 142.04 15.9699C141.4 15.9699 140.86 15.7299 140.08 14.9899C139.54 14.4999 139.1 14.2499 138.81 14.2499C137.44 14.2499 135.38 16.6999 135.38 18.2699V29.2999C135.38 32.0899 136.21 32.8299 139.55 32.9799V33.7199H127.78V32.9799C130.92 32.3899 131.26 32.0499 131.26 29.5999V17.3399C131.26 15.1799 130.82 14.3999 129.59 14.3999C129 14.3999 128.56 14.4499 127.87 14.5999V13.8199C130.76 12.8899 132.53 12.1999 135.13 11.1699L135.37 11.2699V15.7799V15.7699Z" fill="#002B2C"/>
<path d="M136.99 13.96C136.99 13.96 137.13 13.44 137.46 13.09C138.73 11.73 141.53 8.18998 138.97 5.77998C135.74 2.73998 139.38 -1.47002 142.71 0.509982C147.96 3.63998 139.96 12.6 137.47 13.9C136.61 14.35 136.88 14.33 136.82 14.33C136.71 14.33 136.99 13.96 136.99 13.96Z" fill="#002B2C"/>
</svg>
